<svg xmlns="http://www.w3.org/2000/svg" version="1.1" xmlns:xlink="http://www.w3.org/1999/xlink" width="1000" height="1000"><metadata><rdf:RDF xmlns:rdf="http://www.w3.org/1999/02/22-rdf-syntax-ns#" xmlns:dc="http://purl.org/dc/elements/1.1/"><rdf:Description><dc:creator>RealFaviconGenerator</dc:creator><dc:source>https://realfavicongenerator.net</dc:source></rdf:Description></rdf:RDF></metadata><g clip-path="url(#SvgjsClipPath1108)"><rect width="1000" height="1000" fill="#ffffff"></rect><g transform="matrix(0.9574468085106383,0,0,0.9574468085106383,50,122.7659574468085)"><svg xmlns="http://www.w3.org/2000/svg" version="1" xmlns:xlink="http://www.w3.org/1999/xlink" width="940" zoomAndPan="magnify" viewBox="0 0 705 591.000005" height="788" preserveAspectRatio="xMidYMid meet"><defs><clipPath id="440e76c4d8"><path d="M 194 125 L 512.042969 125 L 512.042969 465 L 194 465 Z M 194 125 " clip-rule="nonzero"></path></clipPath><clipPath id="SvgjsClipPath1108"><rect width="1000" height="1000" x="0" y="0" rx="500" ry="500"></rect></clipPath></defs><g clip-path="url(#440e76c4d8)"><path fill="#005b94" d="M 1811.441406 223.386719 L 1756.324219 337.578125 L 1863.875 337.578125 Z M 1624.363281 464.691406 L 1624.363281 456.550781 C 1635.605469 453.53125 1644.75 444.300781 1651.796875 428.863281 C 1652.300781 427.4375 1652.886719 426.09375 1653.558594 424.921875 L 1773.773438 173.214844 C 1775.203125 170.445312 1776.039062 168.515625 1776.375 167.339844 C 1776.710938 166.25 1776.878906 165.160156 1776.878906 164.152344 C 1776.878906 160.546875 1775.367188 157.441406 1772.433594 154.925781 C 1769.582031 152.238281 1765.21875 150.226562 1759.679688 148.546875 L 1759.679688 140.746094 L 1869.328125 140.746094 L 1869.328125 148.546875 C 1863.285156 150.644531 1859.261719 152.574219 1857.078125 154.589844 C 1854.980469 156.519531 1853.976562 159.121094 1853.976562 162.140625 C 1853.976562 163.566406 1854.140625 165.160156 1854.730469 167.007812 C 1855.234375 168.769531 1855.988281 170.949219 1856.996094 173.296875 L 1981.152344 425.339844 C 1986.605469 436.164062 1991.472656 443.714844 1995.75 448.078125 C 2000.027344 452.355469 2005.230469 455.210938 2011.269531 456.636719 L 2011.269531 464.773438 L 1894.660156 464.773438 L 1894.660156 456.636719 C 1900.28125 454.789062 1904.226562 452.859375 1906.574219 450.761719 C 1908.839844 448.582031 1910.097656 445.894531 1910.097656 442.457031 C 1910.097656 441.113281 1909.929688 439.605469 1909.511719 437.925781 C 1909.089844 436.414062 1908.253906 434.148438 1907.078125 431.382812 L 1883.589844 381.710938 L 1734.933594 381.710938 L 1712.617188 431.382812 C 1711.527344 434.148438 1710.6875 436.414062 1710.269531 437.925781 C 1709.851562 439.605469 1709.683594 441.113281 1709.683594 442.457031 C 1709.683594 445.980469 1710.773438 448.664062 1713.207031 450.761719 C 1715.472656 452.859375 1719.496094 454.789062 1725.117188 456.636719 L 1725.117188 464.773438 L 1624.449219 464.773438 Z M 1428.0625 196.289062 L 1330.496094 196.289062 L 1330.496094 285.140625 L 1430.578125 285.140625 C 1460.105469 285.140625 1481.164062 281.53125 1493.746094 274.402344 C 1506.332031 267.269531 1512.539062 255.605469 1512.539062 239.328125 C 1512.539062 223.054688 1506.332031 212.566406 1494.167969 206.019531 C 1481.917969 199.558594 1459.9375 196.289062 1428.144531 196.289062 Z M 1244.085938 464.691406 L 1244.085938 456.550781 C 1250.296875 455.292969 1254.40625 453.53125 1256.417969 451.097656 C 1258.347656 448.75 1259.441406 444.636719 1259.441406 438.765625 L 1259.441406 166.753906 C 1259.441406 161.132812 1258.515625 157.105469 1256.585938 154.757812 C 1254.742188 152.324219 1250.546875 150.308594 1244.171875 148.714844 L 1244.171875 140.914062 L 1447.773438 140.914062 C 1489.972656 140.914062 1522.691406 149.136719 1546.011719 165.578125 C 1569.332031 182.023438 1580.992188 205.097656 1580.992188 234.632812 C 1580.992188 258.878906 1573.777344 278.929688 1559.433594 294.703125 C 1545.171875 310.5625 1522.941406 322.394531 1492.992188 330.363281 L 1561.445312 425.925781 C 1565.472656 431.800781 1570.003906 436.835938 1575.121094 441.113281 C 1580.238281 445.394531 1588.460938 450.59375 1599.703125 456.636719 L 1599.703125 464.773438 L 1480.578125 464.773438 L 1480.578125 456.636719 C 1485.023438 456.046875 1488.378906 454.789062 1490.644531 453.027344 C 1492.992188 451.183594 1494.167969 449 1494.167969 446.316406 C 1494.167969 445.8125 1493.328125 443.714844 1491.816406 440.359375 C 1490.140625 437.003906 1488.460938 433.898438 1486.699219 431.296875 L 1418.832031 332.125 L 1330.578125 332.125 L 1330.578125 438.765625 C 1330.578125 444.804688 1331.503906 448.917969 1333.429688 451.097656 C 1335.277344 453.363281 1339.472656 455.125 1345.847656 456.550781 L 1345.847656 464.691406 Z M 1003.574219 193.265625 L 889.398438 193.265625 L 889.398438 263.996094 L 1012.296875 263.996094 C 1031.84375 263.996094 1046.273438 261.144531 1055.585938 255.4375 C 1064.980469 249.648438 1069.59375 240.925781 1069.59375 229.007812 C 1069.59375 215.835938 1064.730469 206.523438 1054.996094 201.238281 C 1045.265625 195.867188 1028.152344 193.183594 1003.574219 193.183594 Z M 995.433594 321.636719 L 889.398438 321.636719 L 889.398438 409.902344 L 993.085938 409.902344 C 1025.550781 409.902344 1048.035156 406.628906 1060.113281 399.917969 C 1072.277344 393.375 1078.320312 382.046875 1078.320312 365.855469 C 1078.320312 349.660156 1071.859375 339.171875 1058.773438 332.125 C 1045.6875 325.160156 1024.628906 321.636719 995.433594 321.636719 Z M 802.988281 464.691406 L 802.988281 456.550781 C 809.363281 454.875 813.558594 452.945312 815.40625 450.679688 C 817.335938 448.328125 818.257812 444.386719 818.257812 438.765625 L 818.257812 166.753906 C 818.257812 160.714844 817.25 156.601562 815.238281 154.167969 C 813.140625 151.902344 809.03125 150.058594 802.90625 148.632812 L 802.90625 140.828125 L 1021.859375 140.828125 C 1058.4375 140.828125 1086.875 148.128906 1107.34375 162.644531 C 1127.730469 177.242188 1137.882812 197.546875 1137.882812 223.472656 C 1137.882812 238.324219 1134.191406 251.328125 1126.890625 262.488281 C 1119.59375 273.5625 1108.519531 283.042969 1093.585938 290.675781 C 1112.128906 299.90625 1125.800781 310.980469 1134.609375 323.820312 C 1143.417969 336.65625 1147.863281 352.09375 1147.863281 369.882812 C 1147.863281 399.835938 1136.203125 423.160156 1113.132812 439.855469 C 1089.894531 456.550781 1057.09375 464.859375 1014.730469 464.859375 L 802.988281 464.859375 Z M 678.410156 438.765625 C 678.410156 445.058594 679.335938 449.167969 681.261719 451.351562 C 683.191406 453.449219 687.136719 455.292969 693.175781 456.886719 L 693.175781 464.691406 L 591.835938 464.691406 L 591.835938 456.550781 C 598.128906 455.125 602.15625 453.28125 604 451.015625 C 605.761719 448.664062 606.683594 444.636719 606.683594 438.765625 L 606.683594 166.753906 C 606.683594 160.460938 605.761719 156.265625 603.832031 153.917969 C 601.902344 151.652344 597.960938 149.890625 591.917969 148.714844 L 591.917969 140.914062 L 693.261719 140.914062 L 693.261719 148.714844 C 687.386719 149.972656 683.527344 151.734375 681.429688 153.917969 C 679.5 156.265625 678.410156 160.460938 678.410156 166.753906 L 678.410156 438.847656 Z M 281.019531 438.765625 C 281.019531 444.804688 281.941406 448.917969 283.871094 451.097656 C 285.71875 453.363281 289.914062 455.125 296.289062 456.550781 L 296.289062 464.691406 L 194.613281 464.691406 L 194.613281 456.550781 C 200.988281 454.875 205.183594 452.945312 207.027344 450.679688 C 208.957031 448.328125 209.878906 444.386719 209.878906 438.765625 L 209.878906 166.753906 C 209.878906 160.714844 208.875 156.601562 206.859375 154.167969 C 204.761719 151.902344 200.652344 150.058594 194.527344 148.632812 L 194.527344 140.828125 L 485.292969 140.828125 C 491.585938 140.828125 495.695312 139.820312 497.878906 137.808594 C 499.976562 135.710938 501.652344 131.597656 503.164062 125.476562 L 511.300781 125.476562 L 511.300781 213.488281 L 503.164062 213.488281 C 501.90625 207.613281 500.3125 203.753906 498.046875 201.65625 C 495.863281 199.726562 492.425781 198.636719 487.894531 198.636719 L 281.105469 198.636719 L 281.105469 269.703125 L 411.300781 269.703125 C 417.761719 269.703125 421.957031 268.78125 423.96875 267.015625 C 426.066406 265.171875 427.746094 261.144531 429.421875 254.851562 L 437.226562 254.851562 L 437.226562 336.90625 L 429.421875 336.90625 C 428.164062 331.035156 426.402344 327.175781 424.136719 325.078125 C 421.789062 323.148438 417.59375 322.058594 411.300781 322.058594 L 281.105469 322.058594 L 281.105469 438.597656 Z M 281.019531 438.765625 " fill-opacity="1" fill-rule="nonzero"></path></g></svg></g></g></svg>