<?xml version="1.0" encoding="UTF-8"?><svg id="Warstwa_1" xmlns="http://www.w3.org/2000/svg" viewBox="0 0 249.13 75.05"><path d="M225.31,28.98l-6.57,13.61h12.82l-6.25-13.61ZM203.01,57.74v-.97c1.34-.36,2.43-1.46,3.27-3.3.06-.17.13-.33.21-.47l14.33-30c.17-.33.27-.56.31-.7.04-.13.06-.26.06-.38,0-.43-.18-.8-.53-1.1-.34-.32-.86-.56-1.52-.76v-.93h13.07v.93c-.72.25-1.2.48-1.46.72-.25.23-.37.54-.37.9,0,.17.02.36.09.58.06.21.15.47.27.75l14.8,30.04c.65,1.29,1.23,2.19,1.74,2.71.51.51,1.13.85,1.85,1.02v.97h-13.9v-.97c.67-.22,1.14-.45,1.42-.7.27-.26.42-.58.42-.99,0-.16-.02-.34-.07-.54-.05-.18-.15-.45-.29-.78l-2.8-5.92h-17.72l-2.66,5.92c-.13.33-.23.6-.28.78-.05.2-.07.38-.07.54,0,.42.13.74.42.99.27.25.75.48,1.42.7v.97h-12ZM179.61,25.75h-11.63v10.59h11.93c3.52,0,6.03-.43,7.53-1.28,1.5-.85,2.24-2.24,2.24-4.18s-.74-3.19-2.19-3.97c-1.46-.77-4.08-1.16-7.87-1.16ZM157.68,57.74v-.97c.74-.15,1.23-.36,1.47-.65.23-.28.36-.77.36-1.47V22.23c0-.67-.11-1.15-.34-1.43-.22-.29-.72-.53-1.48-.72v-.93h24.27c5.03,0,8.93.98,11.71,2.94,2.78,1.96,4.17,4.71,4.17,8.23,0,2.89-.86,5.28-2.57,7.16-1.7,1.89-4.35,3.3-7.92,4.25l8.16,11.39c.48.7,1.02,1.3,1.63,1.81.61.51,1.59,1.13,2.93,1.85v.97h-14.2v-.97c.53-.07.93-.22,1.2-.43.28-.22.42-.48.42-.8,0-.06-.1-.31-.28-.71-.2-.4-.4-.77-.61-1.08l-8.09-11.82h-10.52v12.71c0,.72.11,1.21.34,1.47.22.27.72.48,1.48.65v.97h-12.12ZM129.01,25.39h-13.61v8.43h14.65c2.33,0,4.05-.34,5.16-1.02,1.12-.69,1.67-1.73,1.67-3.15,0-1.57-.58-2.68-1.74-3.31-1.16-.64-3.2-.96-6.13-.96ZM128.04,40.69h-12.64v10.52h12.36c3.87,0,6.55-.39,7.99-1.19,1.45-.78,2.17-2.13,2.17-4.06s-.77-3.18-2.33-4.02c-1.56-.83-4.07-1.25-7.55-1.25ZM105.1,57.74v-.97c.76-.2,1.26-.43,1.48-.7.23-.28.34-.75.34-1.42V22.23c0-.72-.12-1.21-.36-1.5-.25-.27-.74-.49-1.47-.66v-.93h26.1c4.36,0,7.75.87,10.19,2.6,2.43,1.74,3.64,4.16,3.64,7.25,0,1.77-.44,3.32-1.31,4.65-.87,1.32-2.19,2.45-3.97,3.36,2.21,1.1,3.84,2.42,4.89,3.95,1.05,1.53,1.58,3.37,1.58,5.49,0,3.57-1.39,6.35-4.14,8.34-2.77,1.99-6.68,2.98-11.73,2.98h-25.24ZM90.25,54.65c0,.75.11,1.24.34,1.5.23.25.7.47,1.42.66v.93h-12.08v-.97c.75-.17,1.23-.39,1.45-.66.21-.28.32-.76.32-1.46V22.23c0-.75-.11-1.25-.34-1.53-.23-.27-.7-.48-1.42-.62v-.93h12.08v.93c-.7.15-1.16.36-1.41.62-.23.28-.36.78-.36,1.53v32.43ZM42.88,54.65c0,.72.11,1.21.34,1.47.22.27.72.48,1.48.65v.97h-12.12v-.97c.76-.2,1.26-.43,1.48-.7.23-.28.34-.75.34-1.42V22.23c0-.72-.12-1.21-.36-1.5-.25-.27-.74-.49-1.47-.66v-.93h34.66c.75,0,1.24-.12,1.5-.36.25-.25.45-.74.63-1.47h.97v10.49h-.97c-.15-.7-.34-1.16-.61-1.41-.26-.23-.67-.36-1.21-.36h-24.65v8.47h15.52c.77,0,1.27-.11,1.51-.32.25-.22.45-.7.65-1.45h.93v9.78h-.93c-.15-.7-.36-1.16-.63-1.41-.28-.23-.78-.36-1.53-.36h-15.52v13.89Z" fill="#005b94"/><path d="M0,69.57c3.48,6.65,21.15,7.59,22.67-2.91,1.78-12.36-4.74-17.24-11.66-23.78-2.31-2.18-6.64-7.92-6.29-10.57.8,2.42,4.31,7.36,6.5,9.2,2.84,2.38,9.67,7.9,12.5,14.9,1.94,4.79,1.54,11.9-.64,14.22-6.82,7.27-21.49,4.58-23.08-1.07" fill="#f26522" fill-rule="evenodd"/><path d="M11.2,14.38c-.21-5.62-8.08-3.43-.5-5.6,1.26-.36,8.29-11.14,6.95-8.29-2.22,4.72-3.44,10.39-3.32,16.15.26,12.26-.3,24.43-.27,36.67.01,5.76,1.36,11.4,3.69,16.07,1.41,2.81-5.86-7.8-7.14-8.13-7.63-1.99.29,0,.37-5.61.2-13.74.74-27.51.22-41.24" fill="#005b94" fill-rule="evenodd"/><path d="M17.56,24c.26-5.8-11.2-9.88-9.89-1.17.99,6.58,6.51,11.34,11.48,16.04,1.66,1.57,3.89,4.16,3.64,6.06-.58-1.74-2.21-3.76-3.79-5.08C9.98,32.28,2.07,22.88,6.56,17.88c3.72-4.15,8.92-.22,10.02,1.48,1.26,1.96.98,4.65.98,4.65" fill="#f26522" fill-rule="evenodd"/></svg>